<?xml version="1.0" encoding="utf-8"?>
<!-- Generator: Adobe Illustrator 22.0.1, SVG Export Plug-In . SVG Version: 6.00 Build 0)  -->
<svg version="1.1" id="Layer_1" xmlns="http://www.w3.org/2000/svg" xmlns:xlink="http://www.w3.org/1999/xlink" x="0px" y="0px"
	 viewBox="0 0 94 58" style="enable-background:new 0 0 94 58;" xml:space="preserve">
<style type="text/css">
	.st0{fill:none;}
	.st1{fill:#FFFFFF;stroke:#000000;stroke-miterlimit:10;}
</style>
<rect x="0.5" y="0.5" class="st0" width="93" height="57"/>
<path d="M93,1v56H1V1H93 M94,0H0v58h94V0L94,0z"/>
<rect x="5.5" y="5.5" class="st0" width="24" height="47"/>
<path d="M29,6v46H6V6H29 M30,5H5v48h25V5L30,5z"/>
<rect x="33.5" y="5.5" class="st0" width="26" height="47"/>
<path d="M59,6v46H34V6H59 M60,5H33v48h27V5L60,5z"/>
<rect x="63.5" y="5.5" class="st0" width="24" height="47"/>
<path d="M87,6v46H64V6H87 M88,5H63v48h25V5L88,5z"/>
<polyline class="st1" points="13.2,32.2 8.8,28.2 12.8,23.8 "/>
<polyline class="st1" points="21.8,23.8 26.2,27.8 22.2,32.2 "/>
<polyline class="st1" points="42.2,32.2 37.8,28.2 41.8,23.8 "/>
<polyline class="st1" points="50.8,23.8 55.2,27.8 51.2,32.2 "/>
<polyline class="st1" points="71.2,32.2 66.8,28.2 70.8,23.8 "/>
<polyline class="st1" points="79.8,23.8 84.2,27.8 80.2,32.2 "/>
</svg>
